<svg width="51" height="51" viewBox="0 0 51 51" fill="none" xmlns="http://www.w3.org/2000/svg">
<path d="M25.0013 5.38531C24.3384 5.38531 23.7028 5.64861 23.2341 6.11729C22.7654 6.58596 22.5021 7.22162 22.5021 7.88442C22.5021 12.1129 17.389 14.2322 14.3975 11.2407C14.167 11.002 13.8912 10.8117 13.5863 10.6807C13.2814 10.5497 12.9535 10.4808 12.6217 10.4779C12.2898 10.475 11.9607 10.5382 11.6536 10.6639C11.3465 10.7895 11.0675 10.9751 10.8328 11.2098C10.5982 11.4444 10.4126 11.7234 10.2869 12.0306C10.1613 12.3377 10.098 12.6668 10.1009 12.9986C10.1038 13.3304 10.1727 13.6584 10.3037 13.9633C10.4347 14.2682 10.6251 14.5439 10.8638 14.7745C13.8552 17.7659 11.7385 22.8791 7.50747 22.8791C6.84467 22.8791 6.20901 23.1424 5.74033 23.6111C5.27166 24.0797 5.00836 24.7154 5.00836 25.3782C5.00836 26.041 5.27166 26.6767 5.74033 27.1453C6.20901 27.614 6.84467 27.8773 7.50747 27.8773C11.736 27.8773 13.8552 32.9905 10.8638 35.9819C10.4085 36.4533 10.1566 37.0845 10.1623 37.7398C10.168 38.3951 10.4309 39.0219 10.8942 39.4852C11.3576 39.9486 11.9844 40.2114 12.6396 40.2171C13.2949 40.2228 13.9262 39.9709 14.3975 39.5157C17.389 36.5242 22.5021 38.641 22.5021 42.872C22.5021 43.5348 22.7654 44.1704 23.2341 44.6391C23.7028 45.1078 24.3384 45.3711 25.0013 45.3711C25.6641 45.3711 26.2997 45.1078 26.7684 44.6391C27.2371 44.1704 27.5004 43.5348 27.5004 42.872C27.5004 38.6435 32.6135 36.5242 35.605 39.5157C35.8355 39.7544 36.1113 39.9448 36.4162 40.0757C36.7211 40.2067 37.049 40.2756 37.3808 40.2785C37.7127 40.2814 38.0418 40.2182 38.3489 40.0925C38.656 39.9669 38.9351 39.7813 39.1697 39.5466C39.4043 39.312 39.5899 39.033 39.7156 38.7258C39.8412 38.4187 39.9045 38.0896 39.9016 37.7578C39.8987 37.426 39.8298 37.098 39.6988 36.7931C39.5678 36.4882 39.3774 36.2125 39.1387 35.9819C36.1473 32.9905 38.264 27.8773 42.495 27.8773C43.1578 27.8773 43.7935 27.614 44.2622 27.1453C44.7308 26.6767 44.9941 26.041 44.9941 25.3782C44.9941 24.7154 44.7308 24.0797 44.2622 23.6111C43.7935 23.1424 43.1578 22.8791 42.495 22.8791C38.2665 22.8791 36.1473 17.7659 39.1387 14.7745C39.594 14.3031 39.8459 13.6719 39.8402 13.0166C39.8345 12.3613 39.5716 11.7345 39.1083 11.2712C38.6449 10.8078 38.0181 10.545 37.3629 10.5393C36.7076 10.5336 36.0763 10.7855 35.605 11.2407C32.6135 14.2322 27.5004 12.1154 27.5004 7.88442C27.5004 7.22162 27.2371 6.58596 26.7684 6.11729C26.2997 5.64861 25.6641 5.38531 25.0013 5.38531ZM17.5239 7.32712C17.6621 5.43847 18.5099 3.67209 19.8969 2.38283C21.284 1.09357 23.1076 0.376953 25.0013 0.376953C26.895 0.376953 28.7185 1.09357 30.1056 2.38283C31.4926 3.67209 32.3404 5.43847 32.4786 7.32712C33.9126 6.09552 35.7589 5.45106 37.6479 5.52278C39.5368 5.59451 41.3289 6.37713 42.6654 7.71393C44.0019 9.05073 44.7841 10.8431 44.8554 12.732C44.9267 14.621 44.2818 16.4671 43.0498 17.9009C44.9385 18.0387 46.705 18.8862 47.9945 20.2731C49.284 21.6599 50.0009 23.4833 50.0013 25.377C50.0016 27.2707 49.2853 29.0944 47.9962 30.4817C46.7072 31.8689 44.941 32.717 43.0523 32.8555C44.2839 34.2896 44.9284 36.1359 44.8567 38.0248C44.7849 39.9138 44.0023 41.7059 42.6655 43.0424C41.3287 44.3789 39.5364 45.1611 37.6474 45.2323C35.7585 45.3036 33.9123 44.6587 32.4786 43.4268C32.3404 45.3154 31.4926 47.0818 30.1056 48.3711C28.7185 49.6603 26.895 50.377 25.0013 50.377C23.1076 50.377 21.284 49.6603 19.8969 48.3711C18.5099 47.0818 17.6621 45.3154 17.5239 43.4268C16.0902 44.6587 14.244 45.3036 12.3551 45.2323C10.4661 45.1611 8.67378 44.3789 7.33698 43.0424C6.00017 41.7059 5.21756 39.9138 5.14583 38.0248C5.07411 36.1359 5.71857 34.2896 6.95017 32.8555C5.06152 32.7173 3.29513 31.8696 2.00587 30.4825C0.716613 29.0955 0 27.2719 0 25.3782C0 23.4845 0.716613 21.661 2.00587 20.2739C3.29513 18.8869 5.06152 18.0391 6.95017 17.9009C5.71481 16.4674 5.06721 14.6198 5.1373 12.7287C5.20739 10.8377 5.98998 9.04311 7.32807 7.70502C8.66616 6.36694 10.4608 5.58434 12.3518 5.51425C14.2428 5.44416 16.0904 6.09176 17.5239 7.32712Z" fill="#8227D1"/>
<path d="M25.0013 20.38C23.6756 20.38 22.4043 20.9066 21.467 21.8439C20.5296 22.7813 20.003 24.0526 20.003 25.3782C20.003 26.7038 20.5296 27.9751 21.467 28.9125C22.4043 29.8498 23.6756 30.3764 25.0013 30.3764C26.3269 30.3764 27.5982 29.8498 28.5355 28.9125C29.4729 27.9751 29.9995 26.7038 29.9995 25.3782C29.9995 24.0526 29.4729 22.7813 28.5355 21.8439C27.5982 20.9066 26.3269 20.38 25.0013 20.38ZM17.9338 18.3107C18.8559 17.356 19.959 16.5944 21.1786 16.0705C22.3982 15.5466 23.7099 15.2708 25.0372 15.2593C26.3645 15.2478 27.6809 15.5007 28.9094 16.0033C30.1379 16.506 31.254 17.2482 32.1926 18.1868C33.1312 19.1254 33.8735 20.2415 34.3761 21.4701C34.8788 22.6986 35.1317 24.0149 35.1202 25.3422C35.1086 26.6695 34.8329 27.9813 34.309 29.2009C33.785 30.4205 33.0235 31.5235 32.0687 32.4457C30.1834 34.2666 27.6583 35.2742 25.0372 35.2514C22.4162 35.2287 19.909 34.1773 18.0555 32.3239C16.2021 30.4705 15.1508 27.9633 15.128 25.3422C15.1052 22.7212 16.1128 20.1961 17.9338 18.3107Z" fill="#8227D1"/>
</svg>
