<svg width="144" height="133" viewBox="0 0 144 133" fill="none" xmlns="http://www.w3.org/2000/svg">
<path d="M106.667 77.0061C93.74 77.0061 82.8979 86.3151 80.118 98.7037C73.5154 95.834 67.4689 96.604 62.882 98.6337C60.0325 86.1751 49.1904 77.0061 36.333 77.0061C21.2515 77.0061 8.94995 89.5347 8.94995 105.003C8.94995 120.471 21.2515 133 36.333 133C50.6499 133 62.326 121.661 63.438 107.243C65.801 105.563 71.9865 102.413 79.562 107.383C80.813 121.731 92.35 133 106.667 133C121.748 133 134.05 120.471 134.05 105.003C134.05 89.5347 121.748 77.0061 106.667 77.0061ZM36.333 125.021C25.491 125.021 16.8035 116.062 16.8035 105.003C16.8035 93.9443 25.5605 84.9852 36.333 84.9852C47.1749 84.9852 55.8624 93.9443 55.8624 105.003C55.8624 116.062 47.1749 125.021 36.333 125.021ZM106.667 125.021C95.825 125.021 87.1375 116.062 87.1375 105.003C87.1375 93.9443 95.825 84.9852 106.667 84.9852C117.509 84.9852 126.266 93.9443 126.266 105.003C126.266 116.062 117.439 125.021 106.667 125.021ZM96.0334 4.424C94.5044 0.994378 90.6124 -0.825425 86.929 0.364445L71.5 5.54388L56.0015 0.364445L55.6539 0.294453C51.9705 -0.755433 48.0784 1.20435 46.6884 4.77397L29.7999 49.0091H113.2L96.242 4.77397L96.0334 4.424Z" fill="#8227D1"/>
<path d="M4 63.5H140" stroke="#8227D1" stroke-width="7" stroke-linecap="round"/>
</svg>
