<svg width="50" height="51" viewBox="0 0 50 51" fill="none" xmlns="http://www.w3.org/2000/svg">
<path d="M0 9.40473C0 7.01042 0.951138 4.71416 2.64417 3.02113C4.33721 1.32809 6.63346 0.376953 9.02778 0.376953H40.9722C43.3665 0.376953 45.6628 1.32809 47.3558 3.02113C49.0489 4.71416 50 7.01042 50 9.40473V41.3492C50 43.7435 49.0489 46.0397 47.3558 47.7328C45.6628 49.4258 43.3665 50.377 40.9722 50.377H9.02778C6.63346 50.3769 4.33721 49.4258 2.64417 47.7328C0.951138 46.0397 0 43.7435 0 41.3492V9.40473ZM9.02778 4.54362C7.73853 4.54362 6.50209 5.05577 5.59045 5.96741C4.67882 6.87904 4.16667 8.11548 4.16667 9.40473V22.5992H45.8333V9.40473C45.8333 8.11548 45.3212 6.87904 44.4095 5.96741C43.4979 5.05577 42.2615 4.54362 40.9722 4.54362H9.02778ZM4.16667 31.1631L7.46667 26.7658H4.16667V31.1631ZM7.46667 33.7103H16.6028L18.3389 26.7658H12.6722L7.46667 33.7103ZM4.16667 37.877V41.3492C4.16667 44.0325 6.34444 46.2103 9.02778 46.2103H13.4778L15.5611 37.877H4.16667ZM19.8556 37.877L17.7722 46.2103H33.4944L30.8889 37.877H19.8556ZM35.2556 37.877L37.8611 46.2103H40.9722C42.2615 46.2103 43.4979 45.6981 44.4095 44.7865C45.3212 43.8749 45.8333 42.6384 45.8333 41.3492V37.877H35.2556ZM42.5333 33.7103L37.325 26.7658H31.7833L33.9528 33.7103H42.5333ZM29.5889 33.7103L27.4194 26.7658H22.6333L20.8972 33.7103H29.5889ZM45.8333 31.1631V26.7658H42.5333L45.8333 31.1631Z" fill="#8227D1"/>
</svg>
