<svg width="50" height="46" viewBox="0 0 50 46" fill="none" xmlns="http://www.w3.org/2000/svg">
<path d="M25 5.37695L5 13.377V40.0019H10V25.0019C10 23.6269 10.49 22.4494 11.47 21.4694C12.45 20.4894 13.6267 20.0003 15 20.0019H35C36.375 20.0019 37.5525 20.4919 38.5325 21.4719C39.5125 22.4519 40.0017 23.6286 40 25.0019V40.0019H45V13.377L25 5.37695ZM4.24448e-06 40.0019V13.377C4.24448e-06 12.3353 0.281671 11.3978 0.845004 10.5644C1.40834 9.73112 2.16834 9.12695 3.125 8.75195L23.125 0.751953C23.7083 0.501953 24.3333 0.376953 25 0.376953C25.6667 0.376953 26.2917 0.501953 26.875 0.751953L46.875 8.75195C47.8333 9.12695 48.5942 9.73112 49.1575 10.5644C49.7208 11.3978 50.0017 12.3353 50 13.377V40.0019C50 41.3769 49.51 42.5544 48.53 43.5344C47.55 44.5144 46.3733 45.0036 45 45.0019H35V25.0019H15V45.0019H5C3.625 45.0019 2.4475 44.5119 1.4675 43.5319C0.487504 42.5519 -0.00166242 41.3753 4.24448e-06 40.0019ZM17.5 45.0019V40.0019H22.5V45.0019H17.5ZM22.5 37.5019V32.5019H27.5V37.5019H22.5ZM27.5 45.0019V40.0019H32.5V45.0019H27.5Z" fill="#8227D1"/>
</svg>
