<svg width="59" height="54" viewBox="0 0 59 54" fill="none" xmlns="http://www.w3.org/2000/svg">
<path d="M9.80967 13.1111H6.168C5.57922 13.1109 4.99708 13.2355 4.45995 13.4767C3.92283 13.7179 3.44292 14.0701 3.05185 14.5103C2.66078 14.9504 2.36743 15.4685 2.19115 16.0302C2.01486 16.592 1.95963 17.1848 2.02911 17.7694L5.80967 49.55C5.88987 50.225 6.21477 50.8471 6.72284 51.2986C7.23092 51.7501 7.8869 51.9996 8.56661 52H50.7444C51.4348 52.0001 52.1005 51.7431 52.6117 51.2792C53.1229 50.8152 53.443 50.1774 53.5097 49.4903L56.5902 17.6792C56.6462 17.1009 56.5806 16.5172 56.3976 15.9658C56.2147 15.4143 55.9184 14.9072 55.5279 14.477C55.1373 14.0469 54.6611 13.7031 54.1299 13.4679C53.5986 13.2326 53.024 13.1111 52.443 13.1111H48.6986M2.86522 24.2222H55.643M16.7541 33.9444H41.7541M19.5319 43.6667H38.9763M29.2541 2C23.118 2 18.143 11.6181 18.143 23.4819C18.143 23.7292 18.1458 23.9764 18.1499 24.2222H40.3583C40.3624 23.9764 40.3652 23.7292 40.3652 23.4819C40.3652 11.6181 35.3902 2 29.2541 2Z" stroke="#8227D1" stroke-width="4" stroke-linecap="round" stroke-linejoin="round"/>
</svg>
