<svg width="177" height="160" viewBox="0 0 177 160" fill="none" xmlns="http://www.w3.org/2000/svg">
<path d="M105 96.6664L121.667 113.333M136.084 145.625C134.455 148.489 132.092 150.867 129.239 152.515C126.386 154.163 123.145 155.02 119.85 155H59.1587C55.8374 154.994 52.5787 154.095 49.7241 152.398C46.8695 150.7 44.5241 148.265 42.9337 145.35L7.3338 89.0998C5.80271 86.3111 5 83.1812 5 79.9998C5 76.8185 5.80271 73.6885 7.3338 70.8998L42.9337 14.65C44.5255 11.7372 46.87 9.3051 49.7226 7.60766C52.5751 5.91022 55.831 5.00966 59.1503 5H119.859C126.6 5 132.809 8.69166 136.084 14.65L169.25 70.8998C170.833 73.771 171.663 76.9962 171.663 80.2748C171.663 83.5534 170.833 86.7787 169.25 89.6498L136.084 145.9V145.625ZM55.0004 75.8332C55.0004 83.5686 58.0733 90.9873 63.5431 96.4571C69.0129 101.927 76.4315 105 84.1669 105C91.9024 105 99.3211 101.927 104.791 96.4571C110.261 90.9873 113.334 83.5686 113.334 75.8332C113.334 68.0977 110.261 60.6791 104.791 55.2093C99.3211 49.7395 91.9024 46.6666 84.1669 46.6666C76.4315 46.6666 69.0129 49.7395 63.5431 55.2093C58.0733 60.6791 55.0004 68.0977 55.0004 75.8332Z" stroke="#8227D1" stroke-width="9.0963" stroke-linecap="round" stroke-linejoin="round"/>
</svg>
