<svg width="53" height="50" viewBox="0 0 53 50" fill="none" xmlns="http://www.w3.org/2000/svg">
<path d="M34.2105 21.0526C34.2105 19.6053 35.3947 18.4211 36.8421 18.4211C38.2895 18.4211 39.4737 19.6053 39.4737 21.0526C39.4737 22.5 38.2895 23.6842 36.8421 23.6842C35.3947 23.6842 34.2105 22.5 34.2105 21.0526ZM15.7895 16.4211C15.7895 17.5256 16.6849 18.4211 17.7895 18.4211H26.9474C28.0519 18.4211 28.9474 17.5256 28.9474 16.4211V15.1579C28.9474 14.0533 28.0519 13.1579 26.9474 13.1579H17.7895C16.6849 13.1579 15.7895 14.0533 15.7895 15.1579V16.4211ZM50.6316 14.4737C51.7361 14.4737 52.6316 15.3691 52.6316 16.4737V31.3743C52.6316 32.2351 52.0807 32.9994 51.264 33.2716L46.1948 34.9614C45.5777 35.1671 45.0991 35.6601 44.9119 36.2831L41.2175 48.5756C40.9634 49.4211 40.185 50 39.3022 50H28.3158C27.2112 50 26.3158 49.1046 26.3158 48V46.7368C26.3158 45.6323 25.4204 44.7368 24.3158 44.7368H23.0526C21.9481 44.7368 21.0526 45.6323 21.0526 46.7368V48C21.0526 49.1046 20.1572 50 19.0526 50H8.07343C7.18716 50 6.40848 49.4213 6.1646 48.5693C4.72099 43.5257 0 26.5137 0 19.7368C0 11.7368 6.47368 5.26316 14.4737 5.26316H26.6332C27.2618 5.26316 27.8466 4.9611 28.2612 4.48861C30.6675 1.74601 34.2028 0 38.1579 0C38.8082 0.000138395 39.4484 0.161161 40.0214 0.468718C40.5944 0.776275 41.0824 1.22081 41.4419 1.76271C41.8015 2.30461 42.0214 2.92704 42.082 3.57453C42.1426 4.22202 42.0421 4.87445 41.7895 5.47368C41.5328 6.097 41.3017 6.78417 41.1317 7.51741C40.9895 8.13066 41.2093 8.76197 41.6545 9.20711L46.3353 13.8879C46.7103 14.263 47.219 14.4737 47.7495 14.4737H50.6316ZM47.3684 21.5977C47.3684 20.57 46.5353 19.7368 45.5076 19.7368C45.0141 19.7368 44.5408 19.5408 44.1918 19.1918L36.1121 11.1121C35.737 10.737 35.5211 10.2281 35.5448 9.69815C35.5569 9.42788 35.5748 9.15837 35.5985 8.88974C35.7335 7.35941 34.3473 6.07513 33.1581 7.04774C32.4132 7.65696 31.7807 8.39892 31.2995 9.23899C30.8774 9.97584 30.1422 10.5263 29.293 10.5263H14.4737C9.39474 10.5263 5.26316 14.6579 5.26316 19.7368C5.26316 24.3729 8.08237 35.6873 10.1262 43.2642C10.3609 44.1344 11.1513 44.7368 12.0525 44.7368H13.7895C14.894 44.7368 15.7895 43.8414 15.7895 42.7368V41.4737C15.7895 40.3691 16.6849 39.4737 17.7895 39.4737H29.5789C30.6835 39.4737 31.5789 40.3691 31.5789 41.4737V42.7368C31.5789 43.8414 32.4744 44.7368 33.5789 44.7368H35.3582C36.2394 44.7368 37.0168 44.16 37.2723 43.3167L40.6483 32.1716C40.8359 31.5521 41.3117 31.0618 41.9253 30.8556L46.0055 29.4843C46.8198 29.2107 47.3684 28.4476 47.3684 27.5885V21.5977Z" fill="#8227D1"/>
</svg>
