<svg width="51" height="52" viewBox="0 0 51 52" fill="none" xmlns="http://www.w3.org/2000/svg">
<path d="M27.0006 52H23.1545C22.1344 52 21.1561 51.5948 20.4348 50.8735C19.7135 50.1522 19.3083 49.1739 19.3083 48.1538L19.3143 37.8389C19.3145 37.7545 19.2923 37.6715 19.2502 37.5983C19.208 37.5251 19.1474 37.4643 19.0743 37.4221C19.0012 37.3798 18.9182 37.3575 18.8337 37.3575C18.7493 37.3574 18.6663 37.3796 18.5932 37.4219L9.65809 42.5974C8.78911 43.099 7.75644 43.235 6.78722 42.9753C5.818 42.7157 4.99161 42.0817 4.48982 41.2127L2.50665 37.7704L2.49944 37.7584C2.01116 36.8898 1.88318 35.8643 2.14299 34.9024C2.40281 33.9404 3.02968 33.1188 3.88886 32.6142L12.8564 27.4159C12.9293 27.3736 12.9897 27.3129 13.0318 27.24C13.0738 27.167 13.0959 27.0842 13.0959 27C13.0959 26.9158 13.0738 26.833 13.0318 26.76C12.9897 26.6871 12.9293 26.6264 12.8564 26.5841L3.89727 21.3906C3.4659 21.1433 3.08765 20.8131 2.78424 20.4192C2.48082 20.0252 2.25823 19.5752 2.12924 19.095C2.00024 18.6147 1.96739 18.1137 2.03257 17.6208C2.09775 17.1278 2.25968 16.6526 2.50905 16.2224L4.48501 12.7909C4.73469 12.357 5.06797 11.9771 5.46554 11.673C5.86311 11.3689 6.31707 11.1467 6.80112 11.0192C7.27965 10.8908 7.77892 10.8587 8.26997 10.9247C8.76102 10.9907 9.23407 11.1536 9.66169 11.4038L18.5932 16.5721C18.6663 16.6143 18.7493 16.6366 18.8337 16.6365C18.9182 16.6365 19.0012 16.6142 19.0743 16.5719C19.1474 16.5297 19.208 16.4689 19.2502 16.3957C19.2923 16.3225 19.3145 16.2395 19.3143 16.155L19.3083 5.84615C19.3083 4.82609 19.7135 3.84781 20.4348 3.12651C21.1561 2.40522 22.1344 2 23.1545 2H27.0006C28.0207 2 28.999 2.40522 29.7203 3.12651C30.4416 3.84781 30.8468 4.82609 30.8468 5.84615V16.149C30.8467 16.2335 30.8688 16.3165 30.9109 16.3897C30.9531 16.4629 31.0138 16.5236 31.0869 16.5659C31.16 16.6082 31.2429 16.6305 31.3274 16.6305C31.4118 16.6305 31.4948 16.6083 31.5679 16.5661L40.503 11.3906C41.3722 10.8899 42.4046 10.7545 43.3735 11.0141C44.3425 11.2737 45.1688 11.9071 45.6713 12.7752L47.6533 16.2175L47.6605 16.2284C48.1544 17.0979 48.2844 18.1273 48.0224 19.0923C47.7603 20.0573 47.1273 20.8796 46.2615 21.3798L37.3035 26.5721C37.2307 26.6144 37.1702 26.675 37.1282 26.748C37.0861 26.821 37.064 26.9038 37.064 26.988C37.064 27.0722 37.0861 27.155 37.1282 27.2279C37.1702 27.3009 37.2307 27.3616 37.3035 27.4038L46.2615 32.5962C46.6928 32.8435 47.0711 33.1737 47.3745 33.5676C47.6779 33.9615 47.9006 34.4115 48.0297 34.8917C48.1588 35.3719 48.1918 35.8728 48.1268 36.3658C48.0618 36.8588 47.9 37.3341 47.6509 37.7644L45.6749 41.1959C45.4252 41.6297 45.092 42.0097 44.6944 42.3138C44.2968 42.6179 43.8429 42.8401 43.3588 42.9675C42.8803 43.096 42.381 43.1281 41.89 43.0621C41.3989 42.9961 40.9259 42.8332 40.4982 42.5829L31.5667 37.4147C31.4937 37.3725 31.4108 37.3503 31.3265 37.3503C31.2421 37.3502 31.1593 37.3724 31.0862 37.4145C31.0131 37.4567 30.9524 37.5173 30.9102 37.5903C30.868 37.6633 30.8457 37.7462 30.8456 37.8305L30.8468 48.1538C30.8468 49.1739 30.4416 50.1522 29.7203 50.8735C28.999 51.5948 28.0207 52 27.0006 52Z" stroke="#8227D1" stroke-width="4" stroke-linejoin="round"/>
</svg>
