<svg width="55" height="54" viewBox="0 0 55 54" fill="none" xmlns="http://www.w3.org/2000/svg">
<path d="M20.1342 36.6878C18.1823 38.487 15.61 39.4617 12.9559 39.4077C10.3017 39.3537 7.77123 38.2752 5.89405 36.3981C4.01688 34.5209 2.93845 31.9904 2.88445 29.3362C2.83046 26.6821 3.80508 24.1099 5.60436 22.1579L23.0402 4.72203C24.9922 2.92275 27.5644 1.94813 30.2186 2.00213C32.8728 2.05612 35.4032 3.13455 37.2804 5.01173C39.1576 6.88891 40.236 9.41936 40.29 12.0735C40.344 14.7277 39.3694 17.2999 37.5701 19.2519M14.32 13.4377L23.8203 22.938M52.8823 35.2348C52.8899 39.1388 51.5646 42.9285 49.1258 45.977C46.7799 48.9094 43.5389 50.987 39.9041 51.8973C39.6193 51.9686 39.321 51.9686 39.0361 51.8973C35.4014 50.987 32.1603 48.9094 29.8145 45.977C27.3756 42.9285 26.0504 39.1388 26.0579 35.2348V30.2052C26.0579 29.3159 26.4112 28.463 27.04 27.8342C27.6689 27.2054 28.5217 26.8521 29.411 26.8521H49.5293C50.4186 26.8521 51.2714 27.2054 51.9002 27.8342C52.5291 28.463 52.8823 29.3159 52.8823 30.2052V35.2348Z" stroke="#8227D1" stroke-width="4" stroke-linejoin="round"/>
<path d="M37.8212 42V42.5H38.3212H39.6788H40.1788V42V39.1788H43H43.5V38.6788V37.3212V36.8212H43H40.1788V34V33.5H39.6788H38.3212H37.8212V34V36.8212H35H34.5V37.3212V38.6788V39.1788H35H37.8212V42Z" fill="#8227D1" stroke="#8227D1"/>
</svg>
