<svg width="47" height="51" viewBox="0 0 47 51" fill="none" xmlns="http://www.w3.org/2000/svg">
<path d="M3.57857 4.84124C3.57857 4.60444 3.67264 4.37734 3.84008 4.20989C4.00753 4.04245 4.23463 3.94838 4.47143 3.94838H20.5536C20.7904 3.94838 21.0175 4.04245 21.1849 4.20989C21.3524 4.37734 21.4464 4.60444 21.4464 4.84124L21.4393 11.9841C21.4388 12.5707 21.5539 13.1516 21.7781 13.6936C22.0022 14.2356 22.331 14.7282 22.7456 15.1431C23.1602 15.5581 23.6525 15.8872 24.1943 16.1118C24.7362 16.3364 25.317 16.452 25.9036 16.452H26.7179L26.7857 16.4341V16.4484H27.6786C27.9154 16.4484 28.1425 16.5424 28.3099 16.7099C28.4774 16.8773 28.5714 17.1044 28.5714 17.3412V18.2341H32.1429V17.3412L32.1393 17.1591C32.0923 16.0076 31.6017 14.9188 30.7703 14.1207C29.9389 13.3226 28.8311 12.8769 27.6786 12.877H25.9036C25.6668 12.877 25.4397 12.7829 25.2722 12.6154C25.1048 12.448 25.0107 12.2209 25.0107 11.9841L25.0179 4.84481C25.0179 2.38052 23.0179 0.376953 20.5536 0.376953H4.47143C2.00714 0.376953 0.00714319 2.37695 0.00714319 4.84124L0 35.1984C0 37.6627 2 39.6627 4.46429 39.6627H11.0857C10.8391 38.7912 10.7141 37.8898 10.7143 36.9841V36.0912H4.46429C4.22749 36.0912 4.00038 35.9972 3.83294 35.8297C3.6655 35.6623 3.57143 35.4352 3.57143 35.1984L3.57857 4.84124ZM8.92857 11.0912C9.40217 11.0912 9.85638 10.9031 10.1913 10.5682C10.5261 10.2333 10.7143 9.77913 10.7143 9.30552C10.7143 8.83192 10.5261 8.37772 10.1913 8.04283C9.85638 7.70795 9.40217 7.51981 8.92857 7.51981C8.45497 7.51981 8.00077 7.70795 7.66588 8.04283C7.33099 8.37772 7.14286 8.83192 7.14286 9.30552C7.14286 9.77913 7.33099 10.2333 7.66588 10.5682C8.00077 10.9031 8.45497 11.0912 8.92857 11.0912ZM10.7143 16.4484C10.7143 16.922 10.5261 17.3762 10.1913 17.7111C9.85638 18.046 9.40217 18.2341 8.92857 18.2341C8.45497 18.2341 8.00077 18.046 7.66588 17.7111C7.33099 17.3762 7.14286 16.922 7.14286 16.4484C7.14286 15.9748 7.33099 15.5206 7.66588 15.1857C8.00077 14.8508 8.45497 14.6627 8.92857 14.6627C9.40217 14.6627 9.85638 14.8508 10.1913 15.1857C10.5261 15.5206 10.7143 15.9748 10.7143 16.4484ZM8.92857 25.377C9.40217 25.377 9.85638 25.1888 10.1913 24.8539C10.5261 24.519 10.7143 24.0648 10.7143 23.5912C10.7143 23.1176 10.5261 22.6634 10.1913 22.3285C9.85638 21.9937 9.40217 21.8055 8.92857 21.8055C8.45497 21.8055 8.00077 21.9937 7.66588 22.3285C7.33099 22.6634 7.14286 23.1176 7.14286 23.5912C7.14286 24.0648 7.33099 24.519 7.66588 24.8539C8.00077 25.1888 8.45497 25.377 8.92857 25.377ZM17.8571 9.30552C17.8571 9.77913 17.669 10.2333 17.3341 10.5682C16.9992 10.9031 16.545 11.0912 16.0714 11.0912C15.5978 11.0912 15.1436 10.9031 14.8087 10.5682C14.4739 10.2333 14.2857 9.77913 14.2857 9.30552C14.2857 8.83192 14.4739 8.37772 14.8087 8.04283C15.1436 7.70795 15.5978 7.51981 16.0714 7.51981C16.545 7.51981 16.9992 7.70795 17.3341 8.04283C17.669 8.37772 17.8571 8.83192 17.8571 9.30552ZM16.0714 18.2341C16.545 18.2341 16.9992 18.046 17.3341 17.7111C17.669 17.3762 17.8571 16.922 17.8571 16.4484C17.8571 15.9748 17.669 15.5206 17.3341 15.1857C16.9992 14.8508 16.545 14.6627 16.0714 14.6627C15.5978 14.6627 15.1436 14.8508 14.8087 15.1857C14.4739 15.5206 14.2857 15.9748 14.2857 16.4484C14.2857 16.922 14.4739 17.3762 14.8087 17.7111C15.1436 18.046 15.5978 18.2341 16.0714 18.2341ZM14.2857 28.0555C14.2857 24.6055 17.0857 21.8055 20.5357 21.8055H40.1786C43.6286 21.8055 46.4286 24.6055 46.4286 28.0555V36.9841C46.4286 38.6417 45.7701 40.2314 44.598 41.4035C43.4259 42.5756 41.8362 43.2341 40.1786 43.2341H35.7143V46.8055H37.5C37.9736 46.8055 38.4278 46.9937 38.7627 47.3285C39.0976 47.6634 39.2857 48.1176 39.2857 48.5912C39.2857 49.0648 39.0976 49.519 38.7627 49.8539C38.4278 50.1888 37.9736 50.377 37.5 50.377H23.2143C22.7407 50.377 22.2865 50.1888 21.9516 49.8539C21.6167 49.519 21.4286 49.0648 21.4286 48.5912C21.4286 48.1176 21.6167 47.6634 21.9516 47.3285C22.2865 46.9937 22.7407 46.8055 23.2143 46.8055H25V43.2341H20.5357C18.8781 43.2341 17.2884 42.5756 16.1163 41.4035C14.9442 40.2314 14.2857 38.6417 14.2857 36.9841V28.0555ZM20.5357 39.6627H40.1786C40.889 39.6627 41.5703 39.3805 42.0726 38.8781C42.5749 38.3758 42.8571 37.6945 42.8571 36.9841V28.0555C42.8571 27.3451 42.5749 26.6638 42.0726 26.1615C41.5703 25.6592 40.889 25.377 40.1786 25.377H20.5357C19.8253 25.377 19.144 25.6592 18.6417 26.1615C18.1393 26.6638 17.8571 27.3451 17.8571 28.0555V36.9841C17.8571 38.4627 19.0571 39.6627 20.5357 39.6627ZM32.1429 46.8055V43.2341H28.5714V46.8055H32.1429Z" fill="#8227D1"/>
</svg>
