<svg width="44" height="51" viewBox="0 0 44 51" fill="none" xmlns="http://www.w3.org/2000/svg">
<path d="M26.6667 2.04362C26.6667 1.60159 26.8423 1.17767 27.1548 0.865108C27.4674 0.552548 27.8913 0.376953 28.3333 0.376953H41.6667C42.1087 0.376953 42.5326 0.552548 42.8452 0.865108C43.1577 1.17767 43.3333 1.60159 43.3333 2.04362V18.7103C43.3333 19.1523 43.1577 19.5762 42.8452 19.8888C42.5326 20.2014 42.1087 20.377 41.6667 20.377H36.6667V48.7103C36.6667 49.1523 36.4911 49.5762 36.1785 49.8888C35.866 50.2014 35.442 50.377 35 50.377C34.558 50.377 34.134 50.2014 33.8215 49.8888C33.5089 49.5762 33.3333 49.1523 33.3333 48.7103V20.377H28.3333C27.8913 20.377 27.4674 20.2014 27.1548 19.8888C26.8423 19.5762 26.6667 19.1523 26.6667 18.7103V2.04362ZM11.0633 7.04362H23.3333V10.377H11.0633C10.253 10.3768 9.47044 10.6717 8.86185 11.2067C8.25327 11.7417 7.86038 12.48 7.75667 13.2836L6.84 20.377H23.6167C23.9615 21.3522 24.6003 22.1965 25.445 22.7935C26.2898 23.3905 27.2989 23.7108 28.3333 23.7103H5C4.55797 23.7103 4.13405 23.8859 3.82149 24.1984C3.50893 24.511 3.33333 24.9349 3.33333 25.377V35.377C3.33333 35.819 3.50893 36.2429 3.82149 36.5555C4.13405 36.868 4.55797 37.0436 5 37.0436H30V40.377H10V44.5436C10 45.2067 9.73661 45.8425 9.26777 46.3114C8.79893 46.7802 8.16304 47.0436 7.5 47.0436C6.83696 47.0436 6.20107 46.7802 5.73223 46.3114C5.26339 45.8425 5 45.2067 5 44.5436V40.377C3.67392 40.377 2.40215 39.8502 1.46447 38.9125C0.526784 37.9748 5.46e-08 36.703 5.46e-08 35.377V25.377C-0.000155744 24.3224 0.33311 23.2948 0.95215 22.4411C1.57119 21.5874 2.44431 20.9512 3.44667 20.6236L3.48 20.377H1.66667C1.22464 20.377 0.800716 20.2014 0.488156 19.8888C0.175595 19.5762 5.46e-08 19.1523 5.46e-08 18.7103C5.46e-08 18.2683 0.175595 17.8443 0.488156 17.5318C0.800716 17.2192 1.22464 17.0436 1.66667 17.0436H3.91L4.45 12.857C4.65751 11.2491 5.44376 9.77203 6.66162 8.70203C7.87949 7.63202 9.44552 7.04244 11.0667 7.04362H11.0633ZM29.1633 27.8803C29.4567 27.8803 29.7367 27.9303 30 28.0236V32.7303C29.6232 32.8651 29.2195 32.9073 28.823 32.8532C28.4265 32.7991 28.0489 32.6504 27.722 32.4196C27.3951 32.1888 27.1285 31.8827 26.9448 31.5272C26.7611 31.1716 26.6657 30.7771 26.6667 30.377C26.6667 28.997 27.7833 27.8803 29.1633 27.8803ZM13.3333 30.377C13.3333 30.7048 13.2688 31.0295 13.1433 31.3324C13.0178 31.6353 12.8339 31.9105 12.6021 32.1424C12.3702 32.3742 12.095 32.5581 11.7921 32.6836C11.4892 32.809 11.1645 32.8736 10.8367 32.8736C10.5088 32.8736 10.1841 32.809 9.88123 32.6836C9.57832 32.5581 9.30309 32.3742 9.07126 32.1424C8.83942 31.9105 8.65552 31.6353 8.53005 31.3324C8.40458 31.0295 8.34 30.7048 8.34 30.377C8.34 29.7148 8.60304 29.0798 9.07126 28.6115C9.53947 28.1433 10.1745 27.8803 10.8367 27.8803C11.4988 27.8803 12.1339 28.1433 12.6021 28.6115C13.0703 29.0798 13.3333 29.7148 13.3333 30.377Z" fill="#8227D1"/>
</svg>
