<svg width="50" height="44" viewBox="0 0 50 44" fill="none" xmlns="http://www.w3.org/2000/svg">
<path d="M22.5 33.7103C22.5 34.1523 22.3244 34.5762 22.0118 34.8888C21.6993 35.2014 21.2754 35.377 20.8333 35.377H15C14.558 35.377 14.134 35.2014 13.8215 34.8888C13.5089 34.5762 13.3333 34.1523 13.3333 33.7103C13.3333 33.2683 13.5089 32.8443 13.8215 32.5318C14.134 32.2192 14.558 32.0436 15 32.0436H20.8333C21.2754 32.0436 21.6993 32.2192 22.0118 32.5318C22.3244 32.8443 22.5 33.2683 22.5 33.7103ZM35 32.0436H29.1667C28.7246 32.0436 28.3007 32.2192 27.9882 32.5318C27.6756 32.8443 27.5 33.2683 27.5 33.7103C27.5 34.1523 27.6756 34.5762 27.9882 34.8888C28.3007 35.2014 28.7246 35.377 29.1667 35.377H35C35.442 35.377 35.866 35.2014 36.1785 34.8888C36.4911 34.5762 36.6667 34.1523 36.6667 33.7103C36.6667 33.2683 36.4911 32.8443 36.1785 32.5318C35.866 32.2192 35.442 32.0436 35 32.0436ZM50 42.0436C50 42.4856 49.8244 42.9096 49.5118 43.2221C49.1993 43.5347 48.7754 43.7103 48.3333 43.7103H1.66667C1.22464 43.7103 0.800716 43.5347 0.488155 43.2221C0.175595 42.9096 0 42.4856 0 42.0436C0 41.6016 0.175595 41.1777 0.488155 40.8651C0.800716 40.5525 1.22464 40.377 1.66667 40.377H5V15.377C5 15.0674 5.08619 14.764 5.24892 14.5007C5.41164 14.2374 5.64447 14.0247 5.92131 13.8862C6.19815 13.7478 6.50807 13.6892 6.81634 13.717C7.12461 13.7448 7.41905 13.8579 7.66667 14.0436L18.3333 22.0436V15.377C18.3333 15.0674 18.4195 14.764 18.5822 14.5007C18.745 14.2374 18.9778 14.0247 19.2546 13.8862C19.5315 13.7478 19.8414 13.6892 20.1497 13.717C20.4579 13.7448 20.7524 13.8579 21 14.0436L29.0708 20.0957L31.4792 3.23945C31.5958 2.44644 31.9929 1.72153 32.5984 1.19631C33.2039 0.671095 33.9776 0.380385 34.7792 0.376953H38.5542C39.3557 0.380385 40.1294 0.671095 40.7349 1.19631C41.3404 1.72153 41.7375 2.44644 41.8542 3.23945L44.9792 25.1415C44.9792 25.1415 44.9958 25.304 44.9958 25.377V40.377H48.3292C48.5484 40.3764 48.7656 40.4191 48.9683 40.5026C49.1709 40.5861 49.3552 40.7088 49.5104 40.8636C49.6656 41.0185 49.7887 41.2024 49.8727 41.4048C49.9568 41.6073 50 41.8244 50 42.0436ZM32.1125 22.377L33.8896 23.7103H41.4125L38.5542 3.71029H34.7792L32.1125 22.377ZM8.33333 40.377H41.6667V27.0436H33.3333C32.9727 27.0436 32.6218 26.9267 32.3333 26.7103L21.6667 18.7103V25.377C21.6667 25.6865 21.5805 25.9899 21.4178 26.2532C21.255 26.5165 21.0222 26.7292 20.7454 26.8677C20.4685 27.0061 20.1586 27.0647 19.8503 27.0369C19.5421 27.0091 19.2476 26.896 19 26.7103L8.33333 18.7103V40.377Z" fill="#8227D1"/>
</svg>
