<svg width="58" height="50" viewBox="0 0 58 50" fill="none" xmlns="http://www.w3.org/2000/svg">
<path d="M50.6227 0.0213287C49.7736 0.100832 48.9496 0.352792 48.2012 0.761785L38.0436 6.14301L24.3215 2.77867L23.5143 2.57849L22.7071 2.981L18.0663 5.67162L15.309 7.28598L17.864 9.23614L23.7166 13.6767L16.3852 17.5792L8.51357 14.0125L7.57293 13.61L6.63014 14.0814L2.86328 16.0983L0.375 17.4436L2.25843 19.4626L13.8948 31.9729L14.971 33.2515L16.4519 32.4443L27.5502 26.5249L25.331 38.7662L24.5905 42.6686L28.2906 41.121L33.8053 38.7662L34.6125 38.4304L34.9504 37.6232L42.9534 18.184L54.254 12.1291C57.3665 10.4566 58.6192 6.49602 56.9446 3.38567C56.5404 2.64309 55.9938 1.98749 55.336 1.45637C54.6782 0.925249 53.9221 0.529034 53.111 0.29039C52.3058 0.0455776 51.4617 -0.0456941 50.6227 0.0213287ZM51.0252 4.32631C51.2943 4.30909 51.572 4.3177 51.8324 4.39519C52.2399 4.5088 52.6038 4.74243 52.8767 5.06567C53.1496 5.38892 53.3189 5.78681 53.3625 6.20759C53.4062 6.62836 53.3222 7.05254 53.1215 7.42492C52.9207 7.7973 52.6126 8.10065 52.2371 8.2955L40.1961 14.8197L39.5223 15.1555L39.2533 15.8959L31.2503 35.1349L30.3075 35.5374L32.5956 22.8248L33.4028 18.4531L29.5003 20.5389L15.9138 27.8702L7.37059 18.5866L7.70638 18.3842L15.578 21.8842L16.5854 22.3534L17.4593 21.8153L50.2202 4.52864C50.4704 4.40291 50.7453 4.33383 51.0252 4.32631ZM24.0524 7.15253L32.3266 9.16941L27.886 11.4575L23.0429 7.75738L24.0524 7.15253ZM1.72031 45.695V50H57.6851V45.695H1.72031Z" fill="#8227D1"/>
</svg>
