<svg width="55" height="50" viewBox="0 0 55 50" fill="none" xmlns="http://www.w3.org/2000/svg">
<path d="M12.5 -0.00012207C7.91667 -0.00012207 4.16667 3.74988 4.16667 8.33321V18.7499H0V24.9999H4.16667V47.9165C4.16667 49.0624 5.10417 49.9999 6.25 49.9999H12.5L13.2167 47.9165H40.95L41.6667 49.9999H47.9167C49.0625 49.9999 50 49.0624 50 47.9165V24.9999H54.1667V18.7499H50V8.33321C50 3.74988 46.25 -0.00012207 41.6667 -0.00012207H12.5ZM12.5 4.16654H41.6667C43.9937 4.16654 45.8333 6.00613 45.8333 8.33321H8.33333C8.33333 6.00613 10.1729 4.16654 12.5 4.16654ZM8.33333 12.4999H25V27.0832H8.33333V12.4999ZM29.1667 12.4999H45.8333V27.0832H29.1667V12.4999ZM8.33333 31.2499H45.8333V43.7499H8.33333V31.2499ZM10.4167 35.4165V39.5832H18.75V35.4165H10.4167ZM35.4167 35.4165V39.5832H43.75V35.4165H35.4167Z" fill="#8227D1"/>
</svg>
