<svg width="47" height="52" viewBox="0 0 47 52" fill="none" xmlns="http://www.w3.org/2000/svg">
<path d="M25.8906 24.0959C26.5091 24.3401 27.1113 24.6086 27.6973 24.9016C28.2832 25.1946 28.8529 25.5282 29.4062 25.9026C29.0482 26.2932 28.7227 26.7001 28.4297 27.1233C28.1367 27.5465 27.8682 28.0022 27.624 28.4905C26.3708 27.6767 25.0361 27.0582 23.6201 26.635C22.2041 26.2118 20.7474 26.0002 19.25 26.0002C17.8177 26.0002 16.4342 26.1874 15.0996 26.5618C13.765 26.9361 12.5199 27.4569 11.3643 28.1243C10.2087 28.7916 9.15885 29.6054 8.21484 30.5657C7.27083 31.526 6.45703 32.5839 5.77344 33.7395C5.08984 34.8951 4.56087 36.1402 4.18652 37.4749C3.81217 38.8095 3.625 40.193 3.625 41.6252H0.5C0.5 39.6721 0.784831 37.7922 1.35449 35.9856C1.92415 34.179 2.74609 32.5107 3.82031 30.9807C4.89453 29.4508 6.16406 28.0917 7.62891 26.9036C9.09375 25.7154 10.7539 24.7795 12.6094 24.0959C10.7702 22.8915 9.33789 21.3778 8.3125 19.5549C7.28711 17.732 6.76628 15.7138 6.75 13.5002C6.75 11.775 7.07552 10.1555 7.72656 8.64185C8.3776 7.12817 9.26465 5.80168 10.3877 4.66235C11.5107 3.52303 12.8372 2.62785 14.3672 1.97681C15.8971 1.32576 17.5247 1.00024 19.25 1.00024C20.9753 1.00024 22.5947 1.32576 24.1084 1.97681C25.6221 2.62785 26.9486 3.51489 28.0879 4.63794C29.2272 5.76099 30.1224 7.08748 30.7734 8.61743C31.4245 10.1474 31.75 11.775 31.75 13.5002C31.75 14.5745 31.6198 15.6243 31.3594 16.6497C31.099 17.675 30.7083 18.6435 30.1875 19.5549C29.6667 20.4664 29.0563 21.3046 28.3564 22.0696C27.6566 22.8346 26.8346 23.51 25.8906 24.0959ZM9.875 13.5002C9.875 14.8023 10.1191 16.0149 10.6074 17.1379C11.0957 18.261 11.763 19.2538 12.6094 20.1165C13.4557 20.9791 14.4486 21.6545 15.5879 22.1428C16.7272 22.6311 17.9479 22.8752 19.25 22.8752C20.5358 22.8752 21.7484 22.6311 22.8877 22.1428C24.027 21.6545 25.0199 20.9872 25.8662 20.1409C26.7126 19.2945 27.388 18.3017 27.8926 17.1624C28.3971 16.023 28.6413 14.8023 28.625 13.5002C28.625 12.2144 28.3809 11.0019 27.8926 9.86255C27.4043 8.72323 26.737 7.73039 25.8906 6.88403C25.0443 6.03768 24.0433 5.36222 22.8877 4.85767C21.7321 4.35311 20.5195 4.10897 19.25 4.12524C17.9479 4.12524 16.7354 4.36938 15.6123 4.85767C14.4893 5.34595 13.4964 6.01326 12.6338 6.85962C11.7712 7.70597 11.0957 8.70695 10.6074 9.86255C10.1191 11.0181 9.875 12.2307 9.875 13.5002ZM45.8125 33.8127C45.8125 34.6591 45.6823 35.481 45.4219 36.2786C45.1615 37.0761 44.7708 37.8167 44.25 38.5002V51.0002L38 47.8752L31.75 51.0002V38.5002C31.2454 37.8167 30.863 37.0761 30.6025 36.2786C30.3421 35.481 30.2038 34.6591 30.1875 33.8127C30.1875 32.7385 30.3909 31.7294 30.7979 30.7854C31.2048 29.8414 31.7581 29.0194 32.458 28.3196C33.1579 27.6197 33.988 27.0582 34.9482 26.635C35.9085 26.2118 36.9258 26.0002 38 26.0002C39.0742 26.0002 40.0833 26.2037 41.0273 26.6106C41.9714 27.0175 42.7933 27.579 43.4932 28.2952C44.193 29.0113 44.7546 29.8414 45.1777 30.7854C45.6009 31.7294 45.8125 32.7385 45.8125 33.8127ZM38 29.1252C37.349 29.1252 36.7386 29.2473 36.1689 29.4915C35.5993 29.7356 35.1029 30.0693 34.6797 30.4924C34.2565 30.9156 33.9229 31.412 33.6787 31.9817C33.4346 32.5514 33.3125 33.1617 33.3125 33.8127C33.3125 34.4638 33.4346 35.0741 33.6787 35.6438C33.9229 36.2135 34.2565 36.7099 34.6797 37.1331C35.1029 37.5562 35.5993 37.8899 36.1689 38.134C36.7386 38.3782 37.349 38.5002 38 38.5002C38.651 38.5002 39.2614 38.3782 39.8311 38.134C40.4007 37.8899 40.8971 37.5562 41.3203 37.1331C41.7435 36.7099 42.0771 36.2135 42.3213 35.6438C42.5654 35.0741 42.6875 34.4638 42.6875 33.8127C42.6875 33.1617 42.5654 32.5514 42.3213 31.9817C42.0771 31.412 41.7435 30.9156 41.3203 30.4924C40.8971 30.0693 40.4007 29.7356 39.8311 29.4915C39.2614 29.2473 38.651 29.1252 38 29.1252ZM41.125 45.9465V40.9661C40.1484 41.4055 39.1068 41.6252 38 41.6252C36.8932 41.6252 35.8516 41.4055 34.875 40.9661V45.9465C35.3958 45.6861 35.9167 45.4338 36.4375 45.1897C36.9583 44.9456 37.4792 44.677 38 44.384C38.5208 44.6607 39.0417 44.9211 39.5625 45.1653C40.0833 45.4094 40.6042 45.6698 41.125 45.9465Z" fill="#8227D1" stroke="#8227D1"/>
</svg>
