<svg width="45" height="55" viewBox="0 0 45 55" fill="none" xmlns="http://www.w3.org/2000/svg">
<path d="M42.0244 31.0488V5.43902C42.0244 4.79215 41.7674 4.17178 41.31 3.71437C40.8526 3.25697 40.2322 3 39.5854 3H5.43902C4.79215 3 4.17178 3.25697 3.71437 3.71437C3.25697 4.17178 3 4.79215 3 5.43902V49.3415C3 49.9883 3.25697 50.6087 3.71437 51.0661C4.17178 51.5235 4.79215 51.7805 5.43902 51.7805H18.8537M13.9756 12.7561H31.0488M13.9756 22.5122H31.0488M13.9756 32.2683H21.2927" stroke="#8227D1" stroke-width="5" stroke-linecap="round" stroke-linejoin="round"/>
<path d="M36.1924 41.6178C36.0206 41.3198 35.7709 41.074 35.4702 40.907C35.1695 40.7399 34.8289 40.6577 34.4851 40.6693H32.5881C32.085 40.6693 31.6024 40.8692 31.2467 41.2249C30.8909 41.5807 30.6911 42.0632 30.6911 42.5663C30.6911 43.0694 30.8909 43.552 31.2467 43.9077C31.6024 44.2635 32.085 44.4633 32.5881 44.4633H34.4851C34.9882 44.4633 35.4707 44.6632 35.8265 45.019C36.1822 45.3747 36.3821 45.8572 36.3821 46.3604C36.3821 46.8635 36.1822 47.346 35.8265 47.7018C35.4707 48.0575 34.9882 48.2574 34.4851 48.2574H32.5881C32.2442 48.269 31.9037 48.1868 31.603 48.0197C31.3022 47.8527 31.0526 47.6069 30.8808 47.3089M33.5366 39.7208V49.2059M25 44.4633C25 45.5844 25.2208 46.6944 25.6498 47.7302C26.0788 48.7659 26.7076 49.7069 27.5003 50.4996C28.293 51.2923 29.2341 51.9211 30.2698 52.3501C31.3055 52.7791 32.4155 52.9999 33.5366 52.9999C34.6576 52.9999 35.7677 52.7791 36.8034 52.3501C37.8391 51.9211 38.7802 51.2923 39.5729 50.4996C40.3656 49.7069 40.9944 48.7659 41.4234 47.7302C41.8524 46.6944 42.0732 45.5844 42.0732 44.4633C42.0732 43.3423 41.8524 42.2322 41.4234 41.1965C40.9944 40.1608 40.3656 39.2198 39.5729 38.4271C38.7802 37.6344 37.8391 37.0056 36.8034 36.5766C35.7677 36.1476 34.6576 35.9268 33.5366 35.9268C32.4155 35.9268 31.3055 36.1476 30.2698 36.5766C29.2341 37.0056 28.293 37.6344 27.5003 38.4271C26.7076 39.2198 26.0788 40.1608 25.6498 41.1965C25.2208 42.2322 25 43.3423 25 44.4633Z" stroke="#8227D1" stroke-width="2" stroke-linecap="round" stroke-linejoin="round"/>
</svg>
