<svg width="54" height="54" viewBox="0 0 54 54" fill="none" xmlns="http://www.w3.org/2000/svg">
<path d="M42.4762 21.0479V4.00025C42.4762 2.89568 41.5808 2.00024 40.4762 2.00024H15.9048C14.8002 2.00024 13.9048 2.89567 13.9048 4.00024V28.5717C13.9048 29.6762 14.8002 30.5717 15.9048 30.5717H28.5714C29.676 30.5717 30.5714 29.6762 30.5714 28.5717V15.905C30.5714 14.8004 29.676 13.905 28.5714 13.905H4C2.89543 13.905 2 14.8004 2 15.905V40.4764C2 41.581 2.89543 42.4764 4 42.4764H21.0476M30.5714 52.0002L44.8571 37.7145M47.2381 30.5717C46.2963 30.5717 45.3756 30.851 44.5925 31.3742C43.8094 31.8974 43.1991 32.6412 42.8387 33.5113C42.4783 34.3814 42.3839 35.3389 42.5677 36.2626C42.7514 37.1863 43.205 38.0348 43.8709 38.7008C44.5369 39.3667 45.3854 39.8202 46.3091 40.004C47.2328 40.1877 48.1903 40.0934 49.0604 39.733C49.9305 39.3726 50.6742 38.7622 51.1975 37.9792C51.7207 37.1961 52 36.2754 52 35.3336" stroke="#8227D1" stroke-width="4" stroke-linejoin="round"/>
</svg>
