<svg width="71" height="13" viewBox="0 0 71 13" fill="none" xmlns="http://www.w3.org/2000/svg">
<path d="M6.6876 13C4.8547 13 3.28188 12.362 1.96913 11.0861C0.656375 9.81019 0 8.28148 0 6.5C0 4.71852 0.656375 3.18981 1.96913 1.91389C3.28188 0.63796 4.8547 0 6.6876 0C8.5205 0 10.0933 0.63796 11.4061 1.91389C12.7188 3.18981 13.3752 4.71852 13.3752 6.5C13.3752 7.67963 13.0656 8.76297 12.4464 9.75C11.8519 10.737 11.0469 11.5315 10.0314 12.1333C9.04064 12.7111 7.92604 13 6.6876 13Z" fill="#8227D1"/>
<path d="M35.5 13C33.6671 13 32.0943 12.362 30.7815 11.0861C29.4688 9.81019 28.8124 8.28148 28.8124 6.5C28.8124 4.71852 29.4688 3.18981 30.7815 1.91389C32.0943 0.63796 33.6671 0 35.5 0C37.3329 0 38.9057 0.63796 40.2185 1.91389C41.5312 3.18981 42.1876 4.71852 42.1876 6.5C42.1876 7.67963 41.878 8.76297 41.2588 9.75C40.6643 10.737 39.8593 11.5315 38.8438 12.1333C37.8531 12.7111 36.7384 13 35.5 13Z" fill="#8227D1"/>
<path d="M64.3124 13C62.4795 13 60.9067 12.362 59.5939 11.0861C58.2812 9.81019 57.6248 8.28148 57.6248 6.5C57.6248 4.71852 58.2812 3.18981 59.5939 1.91389C60.9067 0.63796 62.4795 0 64.3124 0C66.1453 0 67.7181 0.63796 69.0309 1.91389C70.3436 3.18981 71 4.71852 71 6.5C71 7.67963 70.6904 8.76297 70.0712 9.75C69.4767 10.737 68.6717 11.5315 67.6562 12.1333C66.6655 12.7111 65.5508 13 64.3124 13Z" fill="#8227D1"/>
</svg>
