<svg width="73" height="54" viewBox="0 0 73 54" fill="none" xmlns="http://www.w3.org/2000/svg">
<path d="M0.505364 21.3607C-0.228585 22.1862 -0.154398 23.4503 0.671067 24.1843C1.49653 24.9182 2.76069 24.8441 3.49464 24.0186L0.505364 21.3607ZM11.6793 11.8034L13.1739 13.1324L13.1743 13.1319L11.6793 11.8034ZM21.9897 7.17241V5.17241L21.9896 5.17241L21.9897 7.17241ZM22.6897 9.17241C23.7942 9.17241 24.6897 8.27698 24.6897 7.17241C24.6897 6.06784 23.7942 5.17241 22.6897 5.17241V9.17241ZM2 50C0.89543 50 0 50.8954 0 52C0 53.1046 0.89543 54 2 54V50ZM20.9655 52V54C21.3983 54 21.8193 53.8596 22.1655 53.6L20.9655 52ZM34.7586 41.6552L33.6393 39.9977C33.612 40.0162 33.585 40.0354 33.5586 40.0552L34.7586 41.6552ZM41.6552 36.4828L40.4058 34.921L40.405 34.9217L41.6552 36.4828ZM33.0345 24.4138L31.9254 22.7495L31.9253 22.7496L33.0345 24.4138ZM18.2354 31.3059C17.2807 31.8615 16.9572 33.0858 17.5128 34.0405C18.0684 34.9951 19.2927 35.3187 20.2474 34.7631L18.2354 31.3059ZM29.5862 2V0V2ZM64.069 2V0V2ZM46.8276 12.3448V14.3448V12.3448ZM60.8649 17.9305C60.1219 18.7479 60.1822 20.0128 60.9995 20.7558C61.8168 21.4988 63.0817 21.4385 63.8247 20.6212L60.8649 17.9305ZM63.8592 20.5833C64.6022 19.7659 64.542 18.501 63.7246 17.758C62.9073 17.015 61.6424 17.0753 60.8994 17.8926L63.8592 20.5833ZM29.8304 17.9305C29.0874 18.7479 29.1477 20.0128 29.965 20.7558C30.7824 21.4988 32.0472 21.4385 32.7902 20.6212L29.8304 17.9305ZM32.8247 20.5833C33.5677 19.7659 33.5075 18.501 32.6901 17.758C31.8728 17.015 30.6079 17.0753 29.8649 17.8926L32.8247 20.5833ZM3.49464 24.0186L13.1739 13.1324L10.1847 10.4745L0.505364 21.3607L3.49464 24.0186ZM13.1743 13.1319C14.2808 11.8868 15.6384 10.8902 17.1578 10.2078L15.5189 6.55894C13.4841 7.4729 11.666 8.80753 10.1843 10.4749L13.1743 13.1319ZM17.1578 10.2078C18.6772 9.5253 20.324 9.17243 21.9897 9.17241L21.9896 5.17241C19.759 5.17244 17.5537 5.64499 15.5189 6.55894L17.1578 10.2078ZM21.9897 9.17241H22.6897V5.17241H21.9897V9.17241ZM2 54H20.9655V50H2V54ZM22.1655 53.6L35.9586 43.2552L33.5586 40.0552L19.7655 50.4L22.1655 53.6ZM34.7586 41.6552C35.8779 43.3126 35.878 43.3126 35.8782 43.3125C35.8782 43.3124 35.8783 43.3123 35.8785 43.3123C35.8787 43.3121 35.8789 43.3119 35.8792 43.3117C35.8799 43.3113 35.8806 43.3108 35.8816 43.3101C35.8835 43.3088 35.8861 43.3071 35.8894 43.3049C35.8959 43.3005 35.9051 43.2942 35.9169 43.2861C35.9406 43.27 35.9749 43.2466 36.0194 43.216C36.1084 43.1548 36.2383 43.065 36.4061 42.9476C36.7417 42.7126 37.2293 42.3668 37.8457 41.9178C39.0782 41.02 40.8269 39.7084 42.9054 38.0439L40.405 34.9217C38.38 36.5433 36.6804 37.8179 35.4905 38.6847C34.8957 39.1181 34.4285 39.4492 34.1122 39.6706C33.9541 39.7813 33.8337 39.8646 33.7539 39.9194C33.714 39.9468 33.6843 39.9671 33.665 39.9802C33.6554 39.9868 33.6485 39.9915 33.6442 39.9944C33.642 39.9959 33.6405 39.9969 33.6397 39.9974C33.6393 39.9977 33.6391 39.9979 33.639 39.9979C33.639 39.9979 33.639 39.9979 33.639 39.9979C33.6391 39.9979 33.6391 39.9978 33.6392 39.9978C33.6392 39.9978 33.6393 39.9977 34.7586 41.6552ZM42.9046 38.0445C45.3994 36.0486 46.7869 33.6376 47.1376 31.1599C47.4858 28.6995 46.7854 26.3409 45.4103 24.5077C42.6186 20.7858 37.1193 19.2883 31.9254 22.7495L34.1436 26.0781C37.5704 23.7945 40.6918 24.8832 42.2104 26.9078C42.9905 27.9479 43.3676 29.2527 43.1771 30.5994C42.9889 31.9288 42.2213 33.4686 40.4058 34.921L42.9046 38.0445ZM31.9253 22.7496C28.4439 25.0699 25.0194 27.2103 22.4626 28.7721C21.185 29.5525 20.126 30.1872 19.3873 30.6263C19.018 30.8459 18.7289 31.0164 18.5326 31.1318C18.4345 31.1895 18.3596 31.2333 18.3095 31.2626C18.2845 31.2773 18.2657 31.2883 18.2532 31.2955C18.247 31.2991 18.2424 31.3018 18.2394 31.3035C18.2379 31.3044 18.2369 31.305 18.2362 31.3054C18.2358 31.3056 18.2356 31.3058 18.2355 31.3059C18.2354 31.3059 18.2354 31.3059 18.2354 31.3059C18.2354 31.3059 18.2354 31.3059 19.2414 33.0345C20.2474 34.7631 20.2474 34.763 20.2476 34.763C20.2476 34.7629 20.2478 34.7628 20.2479 34.7628C20.2482 34.7626 20.2486 34.7624 20.2491 34.7621C20.25 34.7615 20.2514 34.7607 20.2532 34.7597C20.2568 34.7576 20.262 34.7545 20.2688 34.7506C20.2824 34.7426 20.3025 34.7309 20.3288 34.7155C20.3813 34.6848 20.4588 34.6394 20.5596 34.5802C20.7611 34.4617 21.0559 34.2878 21.4312 34.0647C22.1817 33.6186 23.2546 32.9755 24.5477 32.1857C27.1323 30.6069 30.6044 28.437 34.1437 26.078L31.9253 22.7496ZM24.6897 31.3103V8.89655H20.6897V31.3103H24.6897ZM24.6897 8.89655C24.6897 7.59791 25.2055 6.35245 26.1238 5.43417L23.2954 2.60574C21.627 4.27417 20.6897 6.53704 20.6897 8.89655H24.6897ZM26.1238 5.43417C27.0421 4.51588 28.2876 4 29.5862 4V0C27.2267 0 24.9638 0.937312 23.2954 2.60574L26.1238 5.43417ZM29.5862 4H64.069V0H29.5862V4ZM64.069 4C65.3676 4 66.6131 4.51588 67.5313 5.43417L70.3598 2.60574C68.6913 0.937312 66.4285 0 64.069 0V4ZM67.5313 5.43417C68.4496 6.35245 68.9655 7.59791 68.9655 8.89655H72.9655C72.9655 6.53704 72.0282 4.27417 70.3598 2.60574L67.5313 5.43417ZM68.9655 8.89655V29.5862H72.9655V8.89655H68.9655ZM68.9655 29.5862C68.9655 30.8849 68.4496 32.1303 67.5313 33.0486L70.3598 35.877C72.0282 34.2086 72.9655 31.9457 72.9655 29.5862H68.9655ZM67.5313 33.0486C66.6131 33.9669 65.3676 34.4828 64.069 34.4828V38.4828C66.4285 38.4828 68.6914 37.5454 70.3598 35.877L67.5313 33.0486ZM64.069 34.4828H41.6552V38.4828H64.069V34.4828ZM46.8276 24.1379C45.5289 24.1379 44.2835 23.622 43.3652 22.7038L40.5368 25.5322C42.2052 27.2006 44.4681 28.1379 46.8276 28.1379V24.1379ZM43.3652 22.7038C42.4469 21.7855 41.931 20.54 41.931 19.2414H37.931C37.931 21.6009 38.8683 23.8638 40.5368 25.5322L43.3652 22.7038ZM41.931 19.2414C41.931 17.9427 42.4469 16.6973 43.3652 15.779L40.5368 12.9506C38.8683 14.619 37.931 16.8819 37.931 19.2414H41.931ZM43.3652 15.779C44.2835 14.8607 45.5289 14.3448 46.8276 14.3448V10.3448C44.4681 10.3448 42.2052 11.2821 40.5368 12.9506L43.3652 15.779ZM46.8276 14.3448C48.1262 14.3448 49.3717 14.8607 50.29 15.779L53.1184 12.9506C51.45 11.2821 49.1871 10.3448 46.8276 10.3448V14.3448ZM50.29 15.779C51.2083 16.6973 51.7241 17.9427 51.7241 19.2414H55.7241C55.7241 16.8819 54.7868 14.619 53.1184 12.9506L50.29 15.779ZM51.7241 19.2414C51.7241 20.54 51.2083 21.7855 50.29 22.7038L53.1184 25.5322C54.7868 23.8638 55.7241 21.6009 55.7241 19.2414H51.7241ZM50.29 22.7038C49.3717 23.622 48.1262 24.1379 46.8276 24.1379V28.1379C49.1871 28.1379 51.45 27.2006 53.1184 25.5322L50.29 22.7038ZM63.8247 20.6212L63.8592 20.5833L60.8994 17.8926L60.8649 17.9305L63.8247 20.6212ZM32.7902 20.6212L32.8247 20.5833L29.8649 17.8926L29.8304 17.9305L32.7902 20.6212Z" fill="#8227D1"/>
</svg>
