<svg width="56" height="50" viewBox="0 0 56 50" fill="none" xmlns="http://www.w3.org/2000/svg">
<path d="M28.1904 44.9999C28.357 44.9999 28.5236 44.9582 28.6901 44.8749C28.8567 44.7915 28.9817 44.7082 29.065 44.6249L49.5557 24.1249C50.0554 23.6249 50.4203 23.0624 50.6502 22.4374C50.8801 21.8124 50.9942 21.1874 50.9925 20.5624C50.9925 19.8957 50.8776 19.2599 50.6477 18.6549C50.4178 18.0499 50.0538 17.519 49.5557 17.0624L38.9355 6.43738C38.4774 5.93738 37.9459 5.57238 37.3412 5.34238C36.7365 5.11238 36.1026 4.99821 35.4396 4.99988C34.8149 4.99988 34.1901 5.11488 33.5654 5.34488C32.9407 5.57488 32.3785 5.93904 31.8787 6.43738L31.1915 7.12488L35.8144 11.8124C36.4391 12.3957 36.8972 13.0624 37.1888 13.8124C37.4803 14.5624 37.6261 15.354 37.6261 16.1874C37.6261 17.9374 37.033 19.4065 35.8469 20.5949C34.6608 21.7832 33.1923 22.3765 31.4414 22.3749C30.6084 22.3749 29.8063 22.229 29.035 21.9374C28.2637 21.6457 27.5873 21.2082 27.0059 20.6249L22.318 15.9999L11.3855 26.9374C11.2606 27.0624 11.1664 27.1982 11.1031 27.3449C11.0398 27.4915 11.009 27.6465 11.0107 27.8099C11.0107 28.1432 11.1356 28.4457 11.3855 28.7174C11.6354 28.989 11.9269 29.124 12.2601 29.1224C12.4267 29.1224 12.5933 29.0807 12.7599 28.9974C12.9265 28.914 13.0514 28.8307 13.1347 28.7474L21.6309 20.2474L25.1293 23.7474L16.6956 32.2474C16.5707 32.3724 16.4765 32.5082 16.4132 32.6549C16.3499 32.8015 16.3191 32.9574 16.3208 33.1224C16.3208 33.4557 16.4457 33.7474 16.6956 33.9974C16.9455 34.2474 17.237 34.3724 17.5702 34.3724C17.7368 34.3724 17.9034 34.3307 18.07 34.2474C18.2366 34.164 18.3615 34.0807 18.4448 33.9974L26.9409 25.5599L30.4393 29.0599L22.0057 37.5599C21.8807 37.6432 21.7866 37.7682 21.7233 37.9349C21.66 38.1015 21.6292 38.2682 21.6309 38.4349C21.6309 38.7682 21.7558 39.0599 22.0057 39.3099C22.2556 39.5599 22.5471 39.6849 22.8803 39.6849C23.0469 39.6849 23.2035 39.6532 23.3501 39.5899C23.4967 39.5265 23.6316 39.4332 23.7549 39.3099L32.251 30.8724L35.7494 34.3724L27.2533 42.8724C27.1284 42.9974 27.0342 43.1324 26.9709 43.2774C26.9076 43.4224 26.8768 43.579 26.8785 43.7474C26.8785 44.0807 27.0142 44.3724 27.2858 44.6224C27.5573 44.8724 27.8589 44.9999 28.1904 44.9999ZM28.1279 49.9999C26.5869 49.9999 25.2226 49.489 24.0348 48.4674C22.847 47.4457 22.1498 46.1649 21.9432 44.6249C20.5272 44.4165 19.3402 43.8332 18.3823 42.8749C17.4244 41.9165 16.8414 40.729 16.6331 39.3124C15.2171 39.104 14.0401 38.5099 13.1022 37.5299C12.1643 36.5499 11.5921 35.3732 11.3855 33.9999C9.8029 33.7915 8.51182 33.104 7.51227 31.9374C6.51272 30.7707 6.01295 29.3957 6.01295 27.8124C6.01295 26.979 6.16955 26.1774 6.48274 25.4074C6.79593 24.6374 7.24323 23.9599 7.82463 23.3749L22.318 8.93738L30.5018 17.1249C30.5851 17.2499 30.7101 17.344 30.8766 17.4074C31.0432 17.4707 31.2098 17.5015 31.3764 17.4999C31.7513 17.4999 32.0636 17.3857 32.3135 17.1574C32.5634 16.929 32.6883 16.6265 32.6883 16.2499C32.6883 16.0832 32.6567 15.9165 32.5934 15.7499C32.5301 15.5832 32.4368 15.4582 32.3135 15.3749L23.3801 6.43738C22.9219 5.93738 22.3913 5.57238 21.7883 5.34238C21.1852 5.11238 20.5497 4.99821 19.8816 4.99988C19.2569 4.99988 18.6322 5.11488 18.0075 5.34488C17.3828 5.57488 16.8205 5.93904 16.3208 6.43738L7.51227 15.3124C7.13744 15.6874 6.82508 16.1249 6.5752 16.6249C6.32531 17.1249 6.15872 17.6249 6.07542 18.1249C5.99213 18.6249 5.99213 19.1357 6.07542 19.6574C6.15872 20.179 6.32531 20.6682 6.5752 21.1249L2.95184 24.7499C2.24383 23.7915 1.72323 22.7399 1.39005 21.5949C1.05687 20.4499 0.931928 19.2932 1.01522 18.1249C1.09852 16.9582 1.39005 15.8224 1.88983 14.7174C2.3896 13.6124 3.07679 12.6232 3.95139 11.7499L12.7599 2.93738C13.7594 1.97904 14.8739 1.24988 16.1034 0.749878C17.3328 0.249878 18.5922 -0.00012207 19.8816 -0.00012207C21.1727 -0.00012207 22.433 0.249878 23.6624 0.749878C24.8919 1.24988 25.9847 1.97904 26.9409 2.93738L27.6281 3.62488L28.3153 2.93738C29.3149 1.97904 30.4294 1.24988 31.6588 0.749878C32.8882 0.249878 34.1477 -0.00012207 35.4371 -0.00012207C36.7282 -0.00012207 37.9884 0.249878 39.2179 0.749878C40.4473 1.24988 41.5401 1.97904 42.4964 2.93738L53.0541 13.4999C54.012 14.4582 54.7408 15.5624 55.2406 16.8124C55.7404 18.0624 55.9902 19.3332 55.9902 20.6249C55.9902 21.9165 55.7404 23.1774 55.2406 24.4074C54.7408 25.6374 54.012 26.7307 53.0541 27.6874L32.5634 48.1249C31.9803 48.7082 31.3031 49.1665 30.5318 49.4999C29.7605 49.8332 28.9592 49.9999 28.1279 49.9999Z" fill="#8227D1"/>
</svg>
