<svg width="50" height="50" viewBox="0 0 50 50" fill="none" xmlns="http://www.w3.org/2000/svg">
<path d="M5 49.9998C3.625 49.9998 2.4475 49.5098 1.4675 48.5298C0.487504 47.5498 -0.00166242 46.3731 4.24448e-06 44.9998V17.4998C4.24448e-06 16.1248 0.490004 14.9473 1.47 13.9673C2.45 12.9873 3.62667 12.4981 5 12.4998H17.5V4.99976C17.5 3.62476 17.99 2.44726 18.97 1.46726C19.95 0.48726 21.1267 -0.00190656 22.5 -0.000239896H27.5C28.875 -0.000239896 30.0525 0.48976 31.0325 1.46976C32.0125 2.44976 32.5017 3.62643 32.5 4.99976V12.4998H45C46.375 12.4998 47.5525 12.9898 48.5325 13.9698C49.5125 14.9498 50.0017 16.1264 50 17.4998V44.9998C50 46.3747 49.51 47.5522 48.53 48.5323C47.55 49.5123 46.3733 50.0014 45 49.9998H5ZM5 44.9998H45V17.4998H32.5C32.5 18.8748 32.01 20.0523 31.03 21.0323C30.05 22.0123 28.8733 22.5014 27.5 22.4998H22.5C21.125 22.4998 19.9475 22.0098 18.9675 21.0298C17.9875 20.0498 17.4983 18.8731 17.5 17.4998H5V44.9998ZM10 39.9998H25V38.8748C25 38.1664 24.8017 37.5098 24.405 36.9048C24.0083 36.2998 23.4567 35.8314 22.75 35.4998C21.9167 35.1248 21.0733 34.8431 20.22 34.6548C19.3667 34.4664 18.46 34.3731 17.5 34.3748C16.5417 34.3748 15.635 34.4689 14.78 34.6573C13.925 34.8456 13.0817 35.1264 12.25 35.4998C11.5417 35.8331 10.9892 36.3023 10.5925 36.9073C10.1958 37.5123 9.99834 38.1681 10 38.8748V39.9998ZM30 36.2498H40V32.4998H30V36.2498ZM17.5 32.4998C18.5417 32.4998 19.4275 32.1348 20.1575 31.4048C20.8875 30.6748 21.2517 29.7898 21.25 28.7498C21.25 27.7081 20.885 26.8223 20.155 26.0923C19.425 25.3623 18.54 24.9981 17.5 24.9998C16.4583 24.9998 15.5725 25.3648 14.8425 26.0948C14.1125 26.8248 13.7483 27.7098 13.75 28.7498C13.75 29.7914 14.115 30.6773 14.845 31.4073C15.575 32.1373 16.46 32.5014 17.5 32.4998ZM30 28.7498H40V24.9998H30V28.7498ZM22.5 17.4998H27.5V4.99976H22.5V17.4998Z" fill="#8227D1"/>
</svg>
