<svg width="54" height="56" viewBox="0 0 54 56" fill="none" xmlns="http://www.w3.org/2000/svg">
<path d="M27.0028 36.5001C22.5604 36.5001 18.3 34.7353 15.1587 31.5941C12.0175 28.4528 10.2528 24.1924 10.2528 19.75C10.2528 15.3076 12.0175 11.0472 15.1587 7.90597C18.3 4.76473 22.5604 3 27.0028 3C31.4452 3 35.7056 4.76473 38.8469 7.90597C41.9881 11.0472 43.7528 15.3076 43.7528 19.75C43.7528 24.1924 41.9881 28.4528 38.8469 31.5941C35.7056 34.7353 31.4452 36.5001 27.0028 36.5001ZM27.0028 36.5001L36.4945 52.943L40.9556 43.9175L51 44.5652L41.5083 28.125M12.4917 28.125L3 44.568L13.0444 43.9175L17.5055 52.9402L26.9972 36.5001" stroke="#8227D1" stroke-width="5" stroke-linecap="round" stroke-linejoin="round"/>
<path d="M26.5245 12.4635C26.6741 12.0029 27.3259 12.0029 27.4755 12.4635L28.9084 16.8734C28.9753 17.0794 29.1673 17.2188 29.3839 17.2188H34.0207C34.505 17.2188 34.7064 17.8387 34.3146 18.1234L30.5633 20.8488C30.3881 20.9761 30.3148 21.2018 30.3817 21.4078L31.8145 25.8176C31.9642 26.2783 31.437 26.6613 31.0451 26.3766L27.2939 23.6512C27.1186 23.5239 26.8814 23.5239 26.7061 23.6512L22.9549 26.3766C22.563 26.6613 22.0358 26.2783 22.1855 25.8176L23.6183 21.4078C23.6852 21.2018 23.6119 20.9761 23.4367 20.8488L19.6854 18.1234C19.2936 17.8387 19.495 17.2188 19.9793 17.2188H24.6161C24.8327 17.2188 25.0247 17.0794 25.0916 16.8734L26.5245 12.4635Z" stroke="#8227D1" stroke-width="2" stroke-linejoin="round"/>
</svg>
