<svg width="143" height="143" viewBox="0 0 143 143" fill="none" xmlns="http://www.w3.org/2000/svg">
<path d="M5.15039 38.1747V21.5874C5.15039 17.1881 6.89798 12.9691 10.0087 9.85833C13.1195 6.74759 17.3385 5 21.7378 5H38.3251M5.15039 104.524V121.112C5.15039 125.511 6.89798 129.73 10.0087 132.841C13.1195 135.951 17.3385 137.699 21.7378 137.699H38.3251M104.675 5H121.262C125.661 5 129.88 6.74759 132.991 9.85833C136.102 12.9691 137.849 17.1881 137.849 21.5874V38.1747M104.675 137.699H121.262C125.661 137.699 129.88 135.951 132.991 132.841C136.102 129.73 137.849 125.511 137.849 121.112V104.524M46.6188 54.7621H46.7018M96.3809 54.7621H96.4639M50.7657 96.2305C53.4684 98.989 56.6944 101.18 60.2547 102.677C63.815 104.173 67.638 104.943 71.4999 104.943C75.3617 104.943 79.1848 104.173 82.7451 102.677C86.3054 101.18 89.5314 98.989 92.2341 96.2305" stroke="#8227D1" stroke-width="9.0963" stroke-linecap="round" stroke-linejoin="round"/>
</svg>
