<svg width="50" height="50" viewBox="0 0 50 50" fill="none" xmlns="http://www.w3.org/2000/svg">
<path d="M0 47.7273C0 48.9545 1.02273 50 2.27273 50H31.8182C33.0909 50 34.0909 48.9545 34.0909 47.7273V45.4545H0V47.7273ZM17.0455 18.1818C8.52273 18.1818 0 22.7273 0 31.8182H34.0909C34.0909 22.7273 25.5682 18.1818 17.0455 18.1818ZM5.95455 27.2727C8.47727 23.75 13.8409 22.7273 17.0455 22.7273C20.25 22.7273 25.6136 23.75 28.1364 27.2727H5.95455ZM0 36.3636H34.0909V40.9091H0V36.3636ZM38.6364 9.09091V0H34.0909V9.09091H22.7273L23.25 13.6364H44.9773L41.7955 45.4545H38.6364V50H42.5455C44.4545 50 46.0227 48.5227 46.25 46.6591L50 9.09091H38.6364Z" fill="#8227D1"/>
</svg>
