<svg width="45" height="51" viewBox="0 0 45 51" fill="none" xmlns="http://www.w3.org/2000/svg">
<path d="M37.5 35.377C39.4891 35.377 41.3968 36.1671 42.8033 37.5737C44.2098 38.9802 45 40.8878 45 42.877C45 44.8661 44.2098 46.7737 42.8033 48.1803C41.3968 49.5868 39.4891 50.377 37.5 50.377C35.5109 50.377 33.6032 49.5868 32.1967 48.1803C30.7902 46.7737 30 44.8661 30 42.877C30 40.8878 30.7902 38.9802 32.1967 37.5737C33.6032 36.1671 35.5109 35.377 37.5 35.377ZM31.25 5.37695C34.2337 5.37695 37.0952 6.56222 39.2049 8.672C41.3147 10.7818 42.5 13.6433 42.5 16.627C42.5 19.6106 41.3147 22.4721 39.2049 24.5819C37.0952 26.6917 34.2337 27.877 31.25 27.877H13.75C12.0924 27.877 10.5027 28.5354 9.33058 29.7075C8.15848 30.8796 7.5 32.4693 7.5 34.127C7.5 35.7846 8.15848 37.3743 9.33058 38.5464C10.5027 39.7185 12.0924 40.377 13.75 40.377H25C25.663 40.377 26.2989 40.6403 26.7678 41.1092C27.2366 41.578 27.5 42.2139 27.5 42.877C27.5 43.54 27.2366 44.1759 26.7678 44.6447C26.2989 45.1136 25.663 45.377 25 45.377H13.75C10.7663 45.377 7.90483 44.1917 5.79505 42.0819C3.68526 39.9721 2.5 37.1106 2.5 34.127C2.5 31.1433 3.68526 28.2818 5.79505 26.172C7.90483 24.0622 10.7663 22.877 13.75 22.877H31.25C32.9076 22.877 34.4973 22.2185 35.6694 21.0464C36.8415 19.8743 37.5 18.2846 37.5 16.627C37.5 14.9693 36.8415 13.3796 35.6694 12.2075C34.4973 11.0354 32.9076 10.377 31.25 10.377H20C19.337 10.377 18.7011 10.1136 18.2322 9.64472C17.7634 9.17588 17.5 8.53999 17.5 7.87695C17.5 7.21391 17.7634 6.57803 18.2322 6.10919C18.7011 5.64035 19.337 5.37695 20 5.37695H31.25ZM7.5 0.376953C9.48912 0.376953 11.3968 1.16713 12.8033 2.57365C14.2098 3.98018 15 5.88783 15 7.87695C15 9.86608 14.2098 11.7737 12.8033 13.1803C11.3968 14.5868 9.48912 15.377 7.5 15.377C5.51088 15.377 3.60322 14.5868 2.1967 13.1803C0.790177 11.7737 0 9.86608 0 7.87695C0 5.88783 0.790177 3.98018 2.1967 2.57365C3.60322 1.16713 5.51088 0.376953 7.5 0.376953Z" fill="#8227D1"/>
</svg>
