<svg width="50" height="50" viewBox="0 0 50 50" fill="none" xmlns="http://www.w3.org/2000/svg">
<path d="M18.9833 50.0001H6.2C4.55606 49.9988 2.97984 49.3449 1.8174 48.1821C0.654962 47.0193 0.00132415 45.4425 0 43.798V21.774C0 19.3232 0.903333 17.0408 2.325 15.1768L2.32833 15.1735C4.75196 12.0235 6.30499 8.29145 6.83167 4.35157C7.14833 1.9291 9.14 0.00012207 11.7 0.00012207H35.6067C36.5483 0.00012207 37.655 0.000122055 38.6817 0.0167943C41.2083 0.0251304 43.2083 1.97578 43.5033 4.39659C43.9837 8.22466 45.4474 11.8629 47.7517 14.9568L47.7567 14.9634C49.115 16.8007 50 19.0415 50 21.4406V43.798C49.9987 45.4425 49.345 47.0193 48.1826 48.1821C47.0202 49.3449 45.4439 49.9988 43.8 50.0001H31.05C29.8885 50.0013 28.7416 49.7404 27.6947 49.237C26.6479 48.7336 25.7279 48.0006 25.0033 47.0925C24.2851 48.001 23.3701 48.7347 22.3274 49.2384C21.2846 49.742 20.1413 50.0025 18.9833 50.0001ZM15 3.33457V34.9951H23.3167V20.0035L17.4667 3.81806C17.4085 3.65093 17.3361 3.48916 17.25 3.33457H15ZM32.7517 3.33457C32.6683 3.48795 32.5933 3.64967 32.5333 3.81806L26.6767 20.0035V34.9951H35V3.33457H32.7517ZM11.6667 3.33457C10.9067 3.35124 10.25 3.91976 10.1367 4.78505C9.53385 9.30551 7.75319 13.5879 4.97333 17.2025C3.92833 18.573 3.33333 20.1585 3.33333 21.774V34.9951H11.6667V3.33457ZM3.33333 38.3296V43.798C3.33333 45.3786 4.62 46.6657 6.2 46.6657H18.9833C20.079 46.6679 21.1349 46.2551 21.9388 45.5103C22.7427 44.7656 23.235 43.744 23.3167 42.651V38.3296H3.33333ZM26.6767 42.6477C26.7672 43.7447 27.2675 44.7674 28.078 45.512C28.8884 46.2567 29.9496 46.6686 31.05 46.6657H43.8C45.38 46.6657 46.6667 45.3786 46.6667 43.798V38.3296H26.6767V42.6477ZM46.6667 34.9951V21.4406C46.6667 19.8734 46.0867 18.3146 45.0783 16.9491C42.4297 13.3933 40.7473 9.21159 40.195 4.81172V4.80172C40.09 3.9281 39.3983 3.35124 38.6667 3.35124H38.64C38.5378 3.34939 38.4356 3.34773 38.3333 3.34624V34.9951H46.6667Z" fill="#8227D1"/>
</svg>
