<svg width="75" height="54" viewBox="0 0 75 54" fill="none" xmlns="http://www.w3.org/2000/svg">
<rect x="2" y="2" width="71" height="50" rx="5" stroke="#8227D1" stroke-width="4" stroke-linecap="round" stroke-linejoin="round"/>
<path d="M14.7 34.2857C14.7 35.0056 14.9845 35.696 15.4908 36.205C15.9972 36.714 16.6839 37 17.4 37C18.1161 37 18.8028 36.714 19.3092 36.205C19.8155 35.696 20.1 35.0056 20.1 34.2857M14.7 34.2857C14.7 33.5658 14.9845 32.8755 15.4908 32.3664C15.9972 31.8574 16.6839 31.5714 17.4 31.5714C18.1161 31.5714 18.8028 31.8574 19.3092 32.3664C19.8155 32.8755 20.1 33.5658 20.1 34.2857M14.7 34.2857H12V19.3571C12 18.9972 12.1422 18.652 12.3954 18.3975C12.6486 18.143 12.992 18 13.35 18H32.25C34.0402 18 35.7571 19.0009 37.023 20.7825C38.2888 22.5641 39 24.9804 39 27.5M20.1 34.2857H30.9M30.9 34.2857C30.9 35.0056 31.1845 35.696 31.6908 36.205C32.1972 36.714 32.8839 37 33.6 37C34.3161 37 35.0028 36.714 35.5092 36.205C36.0155 35.696 36.3 35.0056 36.3 34.2857M30.9 34.2857C30.9 33.5658 31.1845 32.8755 31.6908 32.3664C32.1972 31.8574 32.8839 31.5714 33.6 31.5714C34.3161 31.5714 35.0028 31.8574 35.5092 32.3664C36.0155 32.8755 36.3 33.5658 36.3 34.2857M36.3 34.2857H39V27.5M39 27.5H32.925L30.9 18M12 24.7857H32.25M18.75 18V24.7857M25.5 18V24.7857" stroke="#8227D1" stroke-width="3" stroke-linecap="round" stroke-linejoin="round"/>
<path d="M50 19H66" stroke="#8227D1" stroke-width="4" stroke-linecap="round" stroke-linejoin="round"/>
<path d="M50 27H66" stroke="#8227D1" stroke-width="4" stroke-linecap="round" stroke-linejoin="round"/>
<path d="M50 35H66" stroke="#8227D1" stroke-width="4" stroke-linecap="round" stroke-linejoin="round"/>
</svg>
